<?xml version="1.0" encoding="iso-8859-1"?>
<!-- Generator: Adobe Illustrator 19.0.0, SVG Export Plug-In . SVG Version: 6.00 Build 0)  -->
<svg version="1.1" id="Capa_1" xmlns="http://www.w3.org/2000/svg" xmlns:xlink="http://www.w3.org/1999/xlink" x="0px" y="0px"
	 viewBox="0 0 512.001 512.001" style="enable-background:new 0 0 512.001 512.001;" xml:space="preserve">
<path style="fill:#FFCC80;" d="M416.002,160c-17.673,0-32,14.327-32,32v-21.333c0-17.673-14.327-32-32-32c-17.673,0-32,14.327-32,32
	v-21.333c0-17.673-14.327-32-32-32c-17.673,0-32,14.327-32,32V42.667c0-17.673-14.327-32-32-32s-32,14.327-32,32v266.667
	l-74.069-37.035c-7.405-3.703-15.571-5.631-23.851-5.632c-16.613,0-30.08,13.467-30.08,30.08v0.128
	c-0.017,8,3.154,15.677,8.811,21.333l137.941,137.941c28.983,28.954,68.281,45.207,109.248,45.184l0,0c70.692,0,128-57.308,128-128
	V192C448.002,174.327,433.676,160,416.002,160z"/>
<g>
	<path style="fill:#FFB74D;" d="M266.669,125.653v119.68c0,5.891-4.776,10.667-10.667,10.667V149.333
		C255.96,140.268,259.852,131.629,266.669,125.653z"/>
	<path style="fill:#FFB74D;" d="M330.669,146.987v98.347c0,5.891-4.776,10.667-10.667,10.667v-85.333
		C319.96,161.601,323.852,152.962,330.669,146.987z"/>
	<path style="fill:#FFB74D;" d="M394.669,168.32v77.013c0,5.891-4.776,10.667-10.667,10.667v-64
		C383.96,182.934,387.852,174.296,394.669,168.32z"/>
</g>
<path d="M320.002,512c-43.823,0.124-85.874-17.291-116.779-48.363L65.282,325.696c-15.941-15.951-15.934-41.804,0.017-57.745
	c7.637-7.632,17.986-11.929,28.783-11.951c9.929,0.008,19.72,2.316,28.608,6.741l58.645,29.333V42.667
	C181.336,19.103,200.438,0,224.002,0s42.667,19.103,42.667,42.667v69.739c20.403-11.789,46.5-4.807,58.289,15.596
	c1.33,2.302,2.442,4.722,3.321,7.231c19.581-13.11,46.081-7.864,59.191,11.716c2.002,2.99,3.618,6.222,4.809,9.617
	c19.586-13.102,46.085-7.845,59.186,11.741c4.691,7.012,7.197,15.257,7.203,23.694v181.333
	C458.575,449.878,396.547,511.906,320.002,512z M94.082,277.333c-10.769,0.03-19.474,8.785-19.443,19.554
	c0.015,5.149,2.065,10.083,5.705,13.726l137.941,137.941c26.923,27.056,63.549,42.219,101.717,42.112
	c64.767-0.082,117.251-52.566,117.333-117.333V192c0-11.782-9.551-21.333-21.333-21.333c-11.782,0-21.333,9.551-21.333,21.333
	v53.333c0,5.891-4.776,10.667-10.667,10.667c-5.891,0-10.667-4.776-10.667-10.667v-74.667c0-11.782-9.551-21.333-21.333-21.333
	c-11.782,0-21.333,9.551-21.333,21.333v74.667c0,5.891-4.776,10.667-10.667,10.667c-5.891,0-10.667-4.776-10.667-10.667v-96
	c0-11.782-9.551-21.333-21.333-21.333c-11.782,0-21.333,9.551-21.333,21.333v96c0,5.891-4.776,10.667-10.667,10.667
	c-5.891,0-10.667-4.776-10.667-10.667V42.667c0-11.782-9.551-21.333-21.333-21.333c-11.782,0-21.333,9.551-21.333,21.333v266.667
	c0,5.891-4.776,10.667-10.667,10.666c-1.659,0-3.295-0.387-4.778-1.13l-74.155-37.035
	C107.171,278.894,100.673,277.354,94.082,277.333z"/>
<g>
</g>
<g>
</g>
<g>
</g>
<g>
</g>
<g>
</g>
<g>
</g>
<g>
</g>
<g>
</g>
<g>
</g>
<g>
</g>
<g>
</g>
<g>
</g>
<g>
</g>
<g>
</g>
<g>
</g>
</svg>
